# Blender v2.78 (sub 0) OBJ File: '-fullscreen'
# www.blender.org
mtllib -fullscreen.mtl
o Cube.002
v 1.279199 1.774153 0.187061
v 1.279199 1.774153 -0.263221
v 1.515232 1.523628 -0.263221
v 1.581509 1.293793 -0.263221
v 1.631971 0.890941 -0.263221
v 1.631971 0.890941 0.187062
v 1.581509 1.293793 0.187062
v 1.515231 1.523628 0.187061
v -1.462817 1.612851 -0.263221
v -1.624281 1.260593 -0.263221
v -1.631276 0.994548 -0.263221
v -1.631276 0.994548 0.187061
v -1.624282 1.260593 0.187061
v -1.462818 1.612851 0.187062
v -1.278504 1.740953 0.187062
v -1.278504 1.740953 -0.263221
v -1.583053 1.466905 0.187062
v -1.583053 1.466905 -0.263221
v 0.330385 1.767001 -0.279803
v 0.330385 1.767001 0.258488
v -0.330385 1.767001 0.258487
v -0.330385 1.767001 -0.279803
v 0.330385 1.847108 -0.279803
v 0.330385 1.880603 -0.239025
v 0.330385 1.870793 -0.260533
v 0.330385 1.880603 0.217710
v 0.330385 1.847108 0.258488
v 0.330385 1.870793 0.239218
v -0.330385 1.847108 0.258487
v -0.330385 1.880603 0.217709
v -0.330385 1.870793 0.239217
v -0.330385 1.880603 -0.239025
v -0.330385 1.847108 -0.279803
v -0.330385 1.870793 -0.260534
v -0.236530 1.794907 -0.225141
v -0.236530 1.794907 0.225142
v -1.630804 1.794907 0.225141
v -1.630804 1.794907 -0.225142
v -0.585099 1.794907 0.225141
v -0.933667 1.794907 0.225141
v -1.282236 1.776581 0.225141
v -1.282236 1.776581 -0.225142
v -0.933667 1.794907 -0.225141
v -0.585099 1.794907 -0.225141
v -0.266970 1.858882 -0.225141
v -0.266970 1.858882 0.225142
v -1.600364 2.070898 0.225141
v -1.600364 2.070898 -0.225142
v -0.600319 1.927272 0.225141
v -0.933667 2.015885 0.225141
v -1.267016 2.127831 0.225141
v -1.267016 2.127831 -0.225142
v -0.933667 2.015885 -0.225141
v -0.600319 1.927272 -0.225141
v -1.705547 1.878138 -0.225142
v -1.705547 1.878138 0.225141
v 0.178921 1.789264 0.190869
v 0.178921 1.789264 -0.259413
v 1.610876 1.815618 -0.259413
v 1.610876 1.815618 0.190870
v 0.527490 1.789264 -0.259413
v 0.876058 1.789264 -0.259413
v 1.224627 1.786356 -0.259413
v 1.224627 1.786356 0.190870
v 0.876058 1.789264 0.190870
v 0.527489 1.789264 0.190869
v 0.209361 1.853239 0.190869
v 0.209361 1.853239 -0.259413
v 1.542755 2.101586 -0.259413
v 1.542755 2.101586 0.190870
v 0.542710 1.931063 -0.259413
v 0.866995 2.082170 -0.259413
v 1.209407 2.166263 -0.259413
v 1.209406 2.166263 0.190870
v 0.866994 2.082170 0.190870
v 0.542709 1.931063 0.190869
v 1.662161 1.927259 0.190870
v 1.662161 1.927259 -0.259413
v -0.320645 1.763395 -1.282583
v 0.320646 1.763395 -1.282583
v 0.320645 1.763395 1.282583
v -0.320646 1.763395 1.282583
v -0.327542 1.354982 -1.310168
v 0.327542 1.354982 -1.310168
v 0.327542 1.354982 1.310168
v -0.327542 1.354982 1.310168
v -0.252060 -1.020867 -1.008241
v 0.252060 -1.020867 -1.008241
v 0.252060 -1.020867 1.008241
v -0.252060 -1.020867 1.008240
v 1.282583 1.770214 -0.320646
v 1.282583 1.770214 0.320646
v -1.282583 1.770214 0.320645
v -1.282583 1.770214 -0.320646
v 1.310168 1.354982 -0.327542
v 1.310168 1.354982 0.327542
v -1.310168 1.354982 0.327541
v -1.310168 1.354982 -0.327542
v 1.008241 -1.010671 -0.252060
v 1.008241 -1.010671 0.252060
v -1.008241 -1.010671 0.252060
v -1.008240 -1.010671 -0.252060
v 1.376081 2.164049 -0.259413
v 1.376081 2.164049 0.190870
v 1.477130 1.759302 -0.259413
v 1.477130 1.759302 0.190870
v 1.627282 2.023304 0.190870
v 1.627282 2.023304 -0.259413
v -1.433690 2.122903 0.225141
v -1.433690 2.122903 -0.225142
v -1.677487 2.001900 -0.225142
v -1.677487 2.001900 0.225141
vn -0.7278 -0.6857 0.0000
vn -0.8687 -0.4953 0.0000
vn -0.9795 -0.2013 0.0000
vn -0.9922 -0.1243 0.0000
vn 0.9937 -0.1115 0.0000
vn 0.9996 -0.0263 0.0000
vn 0.9034 -0.4288 0.0000
vn 0.5707 -0.8211 0.0000
vn 0.6776 -0.7354 0.0000
vn 0.0000 -1.0000 0.0000
vn -0.4312 -0.9022 0.0000
vn 0.0000 0.0000 -1.0000
vn 0.0000 0.3349 -0.9422
vn 0.0000 0.0000 1.0000
vn 0.0000 0.3349 0.9422
vn 0.0000 0.9772 -0.2123
vn 0.0000 0.7913 -0.6114
vn 0.0000 0.7913 0.6114
vn 0.0000 0.9772 0.2123
vn 0.0262 -0.9996 0.0000
vn -0.1652 0.9862 0.0000
vn -0.4935 0.8697 0.0000
vn 0.2010 0.9796 0.0000
vn 0.2290 0.9734 0.0000
vn 0.2878 0.9577 0.0000
vn 0.1467 0.9892 0.0000
vn -0.8618 0.5072 0.0000
vn -0.9678 -0.2516 0.0000
vn 0.1454 -0.9893 0.0000
vn 0.6957 -0.7183 0.0000
vn -0.0042 -1.0000 0.0000
vn -0.0575 -0.9983 0.0000
vn 0.1849 0.9828 0.0000
vn 0.5251 0.8510 0.0000
vn -0.2273 0.9738 0.0000
vn -0.3266 0.9452 0.0000
vn -0.3320 0.9433 0.0000
vn -0.1135 0.9935 0.0000
vn 0.8331 0.5531 0.0000
vn 0.9991 -0.0411 0.0000
vn 0.0000 0.7271 -0.6865
vn 0.0000 -0.0290 -0.9996
vn 0.0000 0.7271 0.6865
vn 0.0000 -0.0290 0.9996
vn 0.0000 -0.7445 -0.6676
vn 0.0000 -0.7445 0.6676
vn 0.6868 0.7268 0.0000
vn 0.9995 -0.0298 0.0000
vn -0.6868 0.7268 0.0000
vn -0.9995 -0.0298 0.0000
vn 0.6674 -0.7447 0.0000
vn -0.6674 -0.7447 0.0000
usemtl Material
s 1
f 1//1 2//1 3//2 8//2
f 8//2 3//2 4//3 7//3
f 7//3 4//3 5//4 6//4
f 10//5 13//5 12//6 11//6
f 18//7 17//7 13//5 10//5
f 16//8 15//8 14//9 9//9
f 9//9 14//9 17//7 18//7
f 42//10 41//10 37//11 38//11
f 19//12 22//12 33//13 23//13
f 21//14 20//14 27//15 29//15
f 32//16 24//16 25//17 34//17
f 34//17 25//17 23//13 33//13
f 29//15 27//15 28//18 31//18
f 31//18 28//18 26//19 30//19
f 24//16 32//16 30//19 26//19
f 35//10 36//10 39//10 44//10
f 44//10 39//10 40//20 43//20
f 43//20 40//20 41//10 42//10
f 110//21 48//22 47//22 109//21
f 45//23 54//24 49//24 46//23
f 54//24 53//25 50//25 49//24
f 53//25 52//26 51//26 50//25
f 112//27 47//22 48//22 111//27
f 37//11 56//28 55//28 38//11
f 106//29 105//29 59//30 60//30
f 57//10 58//10 61//10 66//10
f 66//10 61//10 62//31 65//31
f 65//31 62//31 63//32 64//32
f 104//33 70//34 69//34 103//33
f 67//35 76//36 71//36 68//35
f 76//36 75//37 72//37 71//36
f 75//37 74//38 73//38 72//37
f 108//39 69//34 70//34 107//39
f 59//30 78//40 77//40 60//30
f 80//41 84//42 83//42 79//41
f 82//43 86//44 85//44 81//43
f 79//41 82//43 81//43 80//41
f 87//45 88//45 89//46 90//46
f 87//45 83//42 84//42 88//45
f 89//46 85//44 86//44 90//46
f 92//47 96//48 95//48 91//47
f 94//49 98//50 97//50 93//49
f 91//47 94//49 93//49 92//47
f 99//51 100//51 101//52 102//52
f 99//51 95//48 96//48 100//51
f 101//52 97//50 98//50 102//52
f 74//38 104//33 103//33 73//38
f 64//32 63//32 105//29 106//29
f 78//40 108//39 107//39 77//40
f 52//26 110//21 109//21 51//26
f 56//28 112//27 111//27 55//28
o Cube
v 1.000000 -1.000000 -1.000000
v 1.000000 -1.000000 1.000000
v -1.000000 -1.000000 1.000000
v -1.000000 -1.000000 -1.000000
v 1.164809 1.384356 -1.164808
v 1.164807 1.384356 1.164809
v -1.164808 1.384356 1.164808
v -1.164808 1.384356 -1.164808
v 1.272100 1.761506 -1.272099
v 1.272099 1.761506 1.272100
v -1.272100 1.761506 1.272099
v -1.272099 1.761506 -1.272100
v 1.299460 1.356430 -1.299459
v 1.299459 1.356430 1.299460
v -1.299459 1.356430 -1.299460
v -1.299460 1.356430 1.299459
vn 0.0000 -1.0000 0.0000
vn 0.9976 -0.0690 0.0000
vn -0.0000 -0.0690 0.9976
vn -0.9976 -0.0690 -0.0000
vn 0.0000 -0.0690 -0.9976
vn 0.0000 1.0000 0.0000
vn -0.9977 0.0674 -0.0000
vn 0.0000 0.0674 -0.9977
vn -0.0000 0.0674 0.9977
vn 0.9977 0.0674 0.0000
usemtl Material.001
s off
f 113//53 114//53 115//53 116//53
f 113//54 117//54 118//54 114//54
f 114//55 118//55 119//55 115//55
f 115//56 119//56 120//56 116//56
f 117//57 113//57 116//57 120//57
f 121//58 124//58 123//58 122//58
f 125//53 126//53 128//53 127//53
f 124//59 127//59 128//59 123//59
f 121//60 125//60 127//60 124//60
f 123//61 128//61 126//61 122//61
f 122//62 126//62 125//62 121//62
